/* XPM */
const static char * gb64_xpm[] = {
"64 64 214 2",
"  	c None",
". 	c #9C9C9C",
"+ 	c #5C5C5C",
"@ 	c #606060",
"# 	c #5E5E5E",
"$ 	c #666666",
"% 	c #585858",
"& 	c #909090",
"* 	c #8D8D8D",
"= 	c #8F8F8F",
"- 	c #888888",
"; 	c #929292",
"> 	c #E2E2E2",
", 	c #4A4A4A",
"' 	c #3C3C3C",
") 	c #383838",
"! 	c #E3E3E3",
"~ 	c #DADADA",
"{ 	c #B8B8B8",
"] 	c #636168",
"^ 	c #736F7A",
"/ 	c #C5C5C5",
"( 	c #6C6872",
"_ 	c #948F9E",
": 	c #C8C8C8",
"< 	c #6A6770",
"[ 	c #736B45",
"} 	c #7B6C09",
"| 	c #827412",
"1 	c #827311",
"2 	c #7C723F",
"3 	c #978506",
"4 	c #A28E07",
"5 	c #A18E07",
"6 	c #988607",
"7 	c #A49007",
"8 	c #65626A",
"9 	c #D4D4D4",
"0 	c #796F3E",
"a 	c #8E7D06",
"b 	c #998607",
"c 	c #85818E",
"d 	c #666569",
"e 	c #7A7362",
"f 	c #786D39",
"g 	c #7D723F",
"h 	c #636167",
"i 	c #7F7F7F",
"j 	c #67646D",
"k 	c #CDCDCD",
"l 	c #C9C9C9",
"m 	c #696670",
"n 	c #938E9D",
"o 	c #8C8796",
"p 	c #787580",
"q 	c #646267",
"r 	c #E5E5E5",
"s 	c #DFDFDF",
"t 	c #66636B",
"u 	c #7C7C7D",
"v 	c #D2D2D2",
"w 	c #E1E1E1",
"x 	c #DCDCDC",
"y 	c #999999",
"z 	c #8B8B8B",
"A 	c #C4C4C4",
"B 	c #DCBFCE",
"C 	c #D394B5",
"D 	c #D5A9BF",
"E 	c #D8D8D8",
"F 	c #5D5D5D",
"G 	c #282828",
"H 	c #000000",
"I 	c #B2B2B2",
"J 	c #DCBDCD",
"K 	c #CE6FA0",
"L 	c #C04685",
"M 	c #B21A68",
"N 	c #C391AB",
"O 	c #D9D9D9",
"P 	c #525252",
"Q 	c #010101",
"R 	c #CE78A4",
"S 	c #BD3C7F",
"T 	c #AE0F61",
"U 	c #9D0E57",
"V 	c #763155",
"W 	c #A7A7A7",
"X 	c #9E9E9E",
"Y 	c #4B4B4B",
"Z 	c #5A5A5A",
"` 	c #949494",
" .	c #9A9A9A",
"..	c #C55C92",
"+.	c #B11867",
"@.	c #AD0F61",
"#.	c #7F0B47",
"$.	c #623049",
"%.	c #696969",
"&.	c #353535",
"*.	c #313131",
"=.	c #1F1F1F",
"-.	c #0E0E0E",
";.	c #292929",
">.	c #0F0F0F",
",.	c #555555",
"'.	c #E0D8DC",
").	c #DDC9D3",
"!.	c #E0DCDE",
"~.	c #CF9DB7",
"{.	c #7C0E46",
"].	c #5B0833",
"^.	c #3F0824",
"/.	c #A4929B",
"(.	c #444444",
"_.	c #040404",
":.	c #E1DDDF",
"<.	c #DDC1D0",
"[.	c #D178A6",
"}.	c #C65790",
"|.	c #BD4181",
"1.	c #D8C2CD",
"2.	c #D3C3CB",
"3.	c #AF99A4",
"4.	c #CCC4C8",
"5.	c #343434",
"6.	c #2B2B2B",
"7.	c #222222",
"8.	c #2F2F2F",
"9.	c #707070",
"0.	c #D9ADC4",
"a.	c #CE73A2",
"b.	c #BE3F81",
"c.	c #AF1363",
"d.	c #8D466B",
"e.	c #CD81A8",
"f.	c #B93076",
"g.	c #B01464",
"h.	c #820B48",
"i.	c #642F4A",
"j.	c #D6D6D6",
"k.	c #2E2E2E",
"l.	c #D7BDCA",
"m.	c #B2618A",
"n.	c #880C4C",
"o.	c #750A41",
"p.	c #460627",
"q.	c #A08C96",
"r.	c #D7D7D7",
"s.	c #494949",
"t.	c #464646",
"u.	c #414141",
"v.	c #C1C1C1",
"w.	c #E0DBDD",
"x.	c #AE8098",
"y.	c #835C70",
"z.	c #A4919A",
"A.	c #D1D1D1",
"B.	c #CBCBCB",
"C.	c #DEDEDE",
"D.	c #D3D3D3",
"E.	c #BBBBBB",
"F.	c #DDDDDD",
"G.	c #D3D2D5",
"H.	c #D4D3D6",
"I.	c #D5D4D7",
"J.	c #D5D5D5",
"K.	c #C2C2C2",
"L.	c #C8C6CC",
"M.	c #8C8896",
"N.	c #B5B4B8",
"O.	c #CDCBD0",
"P.	c #928D9C",
"Q.	c #B4B3B7",
"R.	c #BCBCBC",
"S.	c #BDBDBD",
"T.	c #DDDCDE",
"U.	c #AFABB6",
"V.	c #797680",
"W.	c #C4C4C5",
"X.	c #B5B2BC",
"Y.	c #7A7782",
"Z.	c #B9B8BA",
"`.	c #C7C7C7",
" +	c #BFBFBF",
".+	c #DBDBDB",
"++	c #CDCCD0",
"@+	c #97959C",
"#+	c #E0E0E0",
"$+	c #94929A",
"%+	c #DBDBDC",
"&+	c #CACACA",
"*+	c #C6C6C6",
"=+	c #BABABA",
"-+	c #C3C3C3",
";+	c #797979",
">+	c #ABABAB",
",+	c #4E4E4E",
"'+	c #6B6B6B",
")+	c #BEBEBE",
"!+	c #545454",
"~+	c #0D0D0D",
"{+	c #B4B4B4",
"]+	c #CFCFCF",
"^+	c #ACACAC",
"/+	c #191919",
"(+	c #131313",
"_+	c #4C4C4C",
":+	c #8E8E8E",
"<+	c #303030",
"[+	c #020202",
"}+	c #3B3B3B",
"|+	c #373737",
"1+	c #838383",
"                          . + @ @ @ @ @ @ @ @ @ @ @ @ @ @ @ @ @ @ @ @ @ @ @ @ @ @ @ @ @ @ @ @ @ # $ .                           ",
"                        . % & * * * * * * * * * * * * * * * * * * * * * * * * * * * * * * * * * = - % ;                         ",
"                        @ * > > > > > > > > > > > > > > > > > > > > > > > > > > > > > > > > > > > > * ,                         ",
"                        @ * > > > > > > > > > > > > > > > > > > > > > > > > > > > > > > > > > > > > * '                         ",
"                        @ * > > > > > > > > > > > > > > > > > > > > > > > > > > > > > > > > > > > > * )                         ",
"                        @ * > > > > > > > > > > > > > > > > > > > > > > > > > > > > > > > > > > > > * )                         ",
"                        @ * > ! ~ { { { { { { { { { { { { { { { { { { { { { { { { { { { { { { ~ ! > * )                         ",
"                        @ * > ~ ] ^ ^ ^ ^ ^ ^ ^ ^ ^ ^ ^ ^ ^ ^ ^ ^ ^ ^ ^ ^ ^ ^ ^ ^ ^ ^ ^ ^ ^ ^ ] ~ > * )                         ",
"                        @ * > / ( _ _ _ _ _ _ _ _ _ _ _ _ _ _ _ _ _ _ _ _ _ _ _ _ _ _ _ _ _ _ ( / > * )                         ",
"                        @ * > : < _ _ _ _ _ _ _ _ _ _ _ _ _ _ _ _ _ _ _ _ _ _ _ _ _ _ _ _ _ _ < : > * )                         ",
"                        @ * > : < _ _ _ _ _ [ } | 1 1 1 1 1 1 1 1 1 1 1 1 1 1 | } [ _ _ _ _ _ < : > * )                         ",
"                        @ * > : < _ _ _ _ _ 2 3 4 5 5 5 5 5 5 5 5 5 5 5 5 5 5 4 3 2 _ _ _ _ _ < : > * )                         ",
"                        @ * > : < _ _ _ _ _ 2 6 7 7 7 7 7 7 7 7 7 7 7 7 7 7 7 7 6 2 _ _ _ _ _ < : > * )                         ",
"                        @ * > : < _ _ _ _ _ 2 6 7 7 7 7 7 7 7 7 7 7 7 7 7 7 7 7 6 2 _ _ _ _ _ < : > * )                         ",
"                        @ * > : < _ _ _ _ _ 2 6 7 7 7 7 7 7 7 7 7 7 7 7 7 7 7 7 6 2 _ _ _ _ _ < : > * )                         ",
"                        @ * > : < _ _ _ _ _ 2 6 7 7 7 7 7 7 7 7 7 7 7 7 7 7 7 7 6 2 _ _ _ _ _ < : > * )                         ",
"                        @ * > : < _ _ _ _ _ 2 6 7 7 7 7 7 7 7 7 7 7 7 7 7 7 7 7 6 2 _ _ _ _ _ < : > * )                         ",
"                        @ * > : < _ _ _ _ _ 2 6 7 7 7 7 7 7 7 7 7 7 7 7 7 7 7 7 6 2 _ _ _ _ _ < : > * )                         ",
"                        @ * > : < _ _ _ _ _ 2 6 7 7 7 7 7 7 7 7 7 7 7 7 7 7 7 7 6 2 _ _ _ _ _ < : > * )                         ",
"                        @ * > : < _ _ _ _ _ 2 6 7 7 7 7 7 7 7 7 7 7 7 7 7 7 7 7 6 2 _ _ _ _ _ < : > * )                         ",
"                        @ * > : < _ _ _ _ _ 2 6 7 7 7 7 7 7 7 7 7 7 7 7 7 7 7 7 6 2 _ _ _ _ _ < : > * )                         ",
"                        @ * > : < _ _ _ _ _ 2 6 7 7 7 7 7 7 7 7 7 7 7 7 7 7 7 7 6 2 _ _ _ _ _ < : > * )                         ",
"                        @ * > : < _ _ _ _ _ 2 6 7 7 7 7 7 7 7 7 7 7 7 7 7 7 7 7 6 2 _ _ _ _ _ < : > * )                         ",
"                        @ * > : < _ _ _ _ _ 2 6 7 7 7 7 7 7 7 7 7 7 7 7 7 7 7 7 6 2 _ _ _ _ _ < : > * )                         ",
"                        @ * > : < _ _ _ _ _ 2 6 7 7 7 7 7 7 7 7 7 7 7 7 7 7 7 7 6 2 _ _ _ _ _ 8 9 > * )                         ",
"                        @ * > : < _ _ _ _ _ 0 a b 6 6 6 6 6 6 6 6 6 6 6 6 6 6 b a 0 _ _ _ _ c d ! > * )                         ",
"                        @ * > : < _ _ _ _ _ e f g 2 2 2 2 2 2 2 2 2 2 2 2 2 2 g f e _ _ _ _ h i > > * )                         ",
"                        @ * > : < _ _ _ _ _ _ _ _ _ _ _ _ _ _ _ _ _ _ _ _ _ _ _ _ _ _ _ _ j k > > > * )                         ",
"                        @ * > l m n n n n n n n n n n n n n n n n n n n n n n n n n o p q k r > > > * )                         ",
"                        @ * > s h < < < < < < < < < < < < < < < < < < < < < < < < < t q u > > > > > * )                         ",
"                        @ * > > s : : : : : : : : : : : : : : : : : : : : : : : : : v w > > > > > > * )                         ",
"                        @ * > > > > > > > > > > > > > > > > > > > > > > > > > > > > > > > > > > > > * )                         ",
"                        @ * > > > > > > > > > > > > > > > > > > > > > > > > > > > > > > > > > > > > * )                         ",
"                        @ * > > > > > > > > > > > > > > > > > > > > > > > > > > > > > > > > > > > > * )                         ",
"                        @ * > > > > > > > > > > > > > > > > > > > > > > > > > > > > > > > > > > > > * )                         ",
"                        @ * > > > > > > > > > > > > > > > > > > > > > > > > > > > > > > > > > > > > * )                         ",
"                        @ * > > > > > x y z @ A > > > > > > > > > > > > > > > > > > > B C D > > > > * )                         ",
"                        @ * > > > > > E F G H I > > > > > > > > > > > > > > > > > > J K L M N > > > * )                         ",
"                        @ * > > > > > O P Q H I > > > > > > > > > > > > > > > > > > R S T U V > > > * )                         ",
"                        @ * > > > W . X Y Q H Z ` =  .> > > > > > > > > > > > > > > ..+.@.#.$.> > > * )                         ",
"                        @ * > > > %.&.*.=.Q Q -.;.>.,.> > > > > > > > > > '.).!.> > ~.{.].^./.> > > * )                         ",
"                        @ * > > > (.H H H H H H H _.,.> > > > > > > > :.<.[.}.|.1.> > 2.3.4.> > > > * )                         ",
"                        @ * > > > 5.6.G Q H H 7.6.8.9.> > > > > > > > 0.a.b.c.U d.> > > > > > > > > * )                         ",
"                        @ * > > > > > v =.Q H I > > > > > > > > > > > e.f.g.T h.i.> > > > > > > > > * )                         ",
"                        @ * > > > > > j.k.H H I > > > > > > > > > > > l.m.n.o.p.q.> > > > > > > > > * )                         ",
"                        @ * > > > > > r.s.t.u.v.> > > > > > > > > > > > w.x.y.z.> > > > > > > > > > * )                         ",
"                        @ * > > > > > > > > > > > > > > > > > > > > > > > > > > > > > > > > > > > > * )                         ",
"                        @ * > > > > > > > > > > > > > > > > > > > > > > > > > > > > > > > > > > > > * )                         ",
"                        @ * > > > > > > > > > > > > > > > > > > > > > > > > > > > > > > A.B.> > > > * )                         ",
"                        @ * > > > > > > > > > > > > > > > > > > > > > > > > > > > > s C.D.E.F.> > > * )                         ",
"                        @ * > > > > > > > > > > > > > G.H.> > > > I.H.> > > > > > > J.E.> K.E.> > > * )                         ",
"                        @ * > > > > > > > > > > > > L.M.N.> > > O.P.Q.> > > > > s R.> S.S.> E./ > > * )                         ",
"                        @ * > > > > > > > > > > T.U.V.W.> > s X.Y.Z.> > > > > `.s  +R.> E.B..+R.~ > * )                         ",
"                        @ * > > > > > > > > > > ++@+#+> > > H.$+%+> > > > E #+v.E.> E.&+9 E.> *+E.r.* )                         ",
"                        @ * > > > > > > > > > > > > > > > > > > > > > > > A =+> =+: O R.> v.E.> E.R.* )                         ",
"                        @ * > > > > > > > > > > > > > > > > > > > > > A K.> E.A x R.C.K.E.> E.l > C.* )                         ",
"                        @ * > > > > > > > > > > > > > > > > > > > > > C.R.9 .+R.F./ E.> =+-+.+D.> > ;+t.                        ",
"                        @ * > > > > > > > > > > > > > > > > > > > > > > &+E.> `.E.> E.-+~ K.> > > >+,+'+                        ",
"                        @ * > > > > > > > > > > > > > > > > > > > > > > > R.)+> E.K.s E.w > > > > !+~+{+                        ",
"                        @ * > > > > > > > > > > > > > > > > > > > > > > > w E.]+#+R.j.> > > > > ^+_.X                           ",
"                        @ * > > > > > > > > > > > > > > > > > > > > > > > > k R.> r.x > > > >  +/++                             ",
"                        @ * > > > > > > > > > > > > > > > > > > > > > > > > > *+r.> > > > > z (+_+*+                            ",
"                        . % & * * * * * * * * * * * * * * * * * * * * * * * * * * * :+- %.<+[+;+B.                              ",
"                          ; t.}+|+) ) ) ) ) ) ) ) ) ) ) ) ) ) ) ) ) ) ) ) ) ) ) ) ) |+}+P 1+)+                                  "};
