/* XPM */
static char * open_xpm[] = {
"16 16 125 2",
"  	c None",
". 	c #3CA5C7",
"+ 	c #3EA5C7",
"@ 	c #41A5C6",
"# 	c #3EA3C4",
"$ 	c #38A0C2",
"% 	c #329CBF",
"& 	c #3DA5C8",
"* 	c #40A7C8",
"= 	c #2499C0",
"- 	c #1492BC",
"; 	c #1191BB",
"> 	c #1492BB",
", 	c #1F96BC",
"' 	c #309ABC",
") 	c #2B97BB",
"! 	c #42A8C9",
"~ 	c #2F9FC3",
"{ 	c #F0F8FB",
"] 	c #97CFE1",
"^ 	c #2294BA",
"/ 	c #2A94B7",
"( 	c #1F97BF",
"_ 	c #2A7D98",
": 	c #C2DAE2",
"< 	c #96C4D3",
"[ 	c #1F92B8",
"} 	c #2391B4",
"| 	c #118EB7",
"1 	c #F0F6F8",
"2 	c #0F789B",
"3 	c #228FB3",
"4 	c #3AA4C7",
"5 	c #5DB4D1",
"6 	c #DCEFF5",
"7 	c #D6ECF3",
"8 	c #88C8DD",
"9 	c #A5D6E5",
"0 	c #FFFFFF",
"a 	c #178FB7",
"b 	c #1C8CB1",
"c 	c #42A7C8",
"d 	c #DBEFF5",
"e 	c #D5ECF3",
"f 	c #CFE9F1",
"g 	c #C9E6F0",
"h 	c #C3E4EE",
"i 	c #A1CEDC",
"j 	c #5DA0B6",
"k 	c #C2D9E1",
"l 	c #0D6988",
"m 	c #0F7698",
"n 	c #1C88AC",
"o 	c #D4ECF3",
"p 	c #CEE9F1",
"q 	c #C8E6EF",
"r 	c #C2E3EE",
"s 	c #BCE1EC",
"t 	c #B6DEEA",
"u 	c #96C9DA",
"v 	c #67A8BD",
"w 	c #D1E3E9",
"x 	c #67A1B4",
"y 	c #0E7193",
"z 	c #1A86A9",
"A 	c #CEE8F1",
"B 	c #BCDEE9",
"C 	c #95C4D4",
"D 	c #90C2D3",
"E 	c #8CC0D1",
"F 	c #87BED1",
"G 	c #81BBCE",
"H 	c #67A9BF",
"I 	c #0E6D8D",
"J 	c #1089B1",
"K 	c #1884A8",
"L 	c #3BA1C2",
"M 	c #C7E5EF",
"N 	c #B7D8E3",
"O 	c #FBFDFE",
"P 	c #F7FBFD",
"Q 	c #F3F9FC",
"R 	c #EFF8FA",
"S 	c #EBF6F9",
"T 	c #E6F4F8",
"U 	c #AED9E7",
"V 	c #1190BA",
"W 	c #1582A6",
"X 	c #309CBF",
"Y 	c #B5DAE7",
"Z 	c #E3EFF4",
"` 	c #FCFEFE",
" .	c #F8FCFD",
"..	c #F4FAFC",
"+.	c #ECF6FA",
"@.	c #E8F4F8",
"#.	c #E4F3F7",
"$.	c #418BA3",
"%.	c #0E7395",
"&.	c #138BB3",
"*.	c #1284A9",
"=.	c #B3D7E2",
"-.	c #FEFEFF",
";.	c #FAFDFE",
">.	c #F6FBFC",
",.	c #F2F9FB",
"'.	c #EDF7FA",
").	c #E9F5F9",
"!.	c #E5F3F8",
"~.	c #ACCFDA",
"{.	c #1087AE",
"].	c #1282A7",
"^.	c #ECF6F9",
"/.	c #E7F4F8",
"(.	c #E3F2F7",
"_.	c #418AA3",
":.	c #1287AE",
"<.	c #1081A7",
"[.	c #1180A5",
"}.	c #107FA4",
"|.	c #1291BA",
"1.	c #1D8BB0",
"2.	c #1B89AD",
"3.	c #1583A8",
"4.	c #1283A8",
"          . + @ # $ %           ",
"      & * = - ; ; > , ' )       ",
"    ! ~ ; ; ; ; { { ] ; ^ /     ",
"  & ~ ; ; ; ; ; ( _ : < ; [ }   ",
"  * ; ; ; ; ; ; ; | [ 1 2 ; 3   ",
"4 = ; 5 6 7 8 ; ; 9 0 0 0 9 a b ",
"c - ; d e f g h i j k 0 k l m n ",
"@ ; ; o p q r s t u v w x y ; z ",
"# ; ; A B C D E F G H l I J ; K ",
"L > ; M N 0 O P Q R S T U ; V W ",
"X , ; Y Z `  ...{ +.@.#.$.%.&.*.",
"  ' ; =.-.;.>.,.'.).!.~.l {.].  ",
"  ) ^ ^.O P Q R S /.(._.%.:.<.  ",
"    / [ l l l l l l l l [.}.    ",
"      } 3 a |.; ; V &.].<.      ",
"          1.2.z K 3.4.          "};
