/* XPM */
static char * pause_xpm[] = {
"16 16 68 1",
" 	c None",
".	c #3CA5C7",
"+	c #3EA5C7",
"@	c #41A5C6",
"#	c #3EA3C4",
"$	c #38A0C2",
"%	c #329CBF",
"&	c #3DA5C8",
"*	c #40A7C8",
"=	c #2499C0",
"-	c #1492BC",
";	c #1191BB",
">	c #1492BB",
",	c #1F96BC",
"'	c #309ABC",
")	c #2B97BB",
"!	c #42A8C9",
"~	c #2F9FC3",
"{	c #2294BA",
"]	c #2A94B7",
"^	c #1F92B8",
"/	c #2391B4",
"(	c #228FB3",
"_	c #3AA4C7",
":	c #FFFFFF",
"<	c #FCFEFE",
"[	c #F3FAFC",
"}	c #F1F8FB",
"|	c #178FB7",
"1	c #1C8CB1",
"2	c #42A7C8",
"3	c #FDFEFE",
"4	c #FAFDFD",
"5	c #0D6988",
"6	c #F1F9FB",
"7	c #EEF7FA",
"8	c #1291BA",
"9	c #1C88AC",
"0	c #FAFDFE",
"a	c #F7FBFD",
"b	c #EFF7FA",
"c	c #ECF6F9",
"d	c #1A86A9",
"e	c #F8FCFD",
"f	c #F5FAFC",
"g	c #ECF6FA",
"h	c #E9F5F9",
"i	c #1884A8",
"j	c #3BA1C2",
"k	c #F2F9FB",
"l	c #EAF5F9",
"m	c #E7F4F8",
"n	c #1190BA",
"o	c #1582A6",
"p	c #309CBF",
"q	c #F3F9FB",
"r	c #F0F8FB",
"s	c #E4F3F7",
"t	c #138BB3",
"u	c #1284A9",
"v	c #1282A7",
"w	c #1287AE",
"x	c #1081A7",
"y	c #107FA4",
"z	c #1D8BB0",
"A	c #1B89AD",
"B	c #1583A8",
"C	c #1283A8",
"     .+@#$%     ",
"   &*=-;;>,')   ",
"  !~;;;;;;;;{]  ",
" &~;;;;;;;;;;^/ ",
" *;;;;;;;;;;;;( ",
"_=;;;:<;;[};;;|1",
"2-;;;345;675;;89",
"@;;;;0a5;bc5;;;d",
"#;;;;ef5;gh5;;;i",
"j>;;;fk5;lm5;;no",
"p,;;;qr5;ms5;;tu",
" ';;;;55;;55;;v ",
" ){;;;;;;;;;;wx ",
"  ]^;;;;;;;;wy  ",
"   /(|8;;ntvx   ",
"     zAdiBC     "};
