/* XPM */
static char * play_xpm[] = {
"16 16 78 1",
" 	c None",
".	c #2ED558",
"+	c #31D45A",
"@	c #34D45C",
"#	c #31D259",
"$	c #2AD053",
"%	c #23CE4E",
"&	c #2FD559",
"*	c #32D65B",
"=	c #14CF43",
"-	c #03CC36",
";	c #00CC33",
">	c #03CC35",
",	c #0FCC3E",
"'	c #22CB4C",
")	c #1DC948",
"!	c #34D65D",
"~	c #20D24D",
"{	c #13C940",
"]	c #1CC646",
"^	c #10C73D",
"/	c #14C340",
"(	c #AFEFBF",
"_	c #10CF40",
":	c #14C13F",
"<	c #2CD456",
"[	c #FBFEFC",
"}	c #E8F9EC",
"|	c #4DDA70",
"1	c #08C737",
"2	c #0DC03A",
"3	c #35D55D",
"4	c #F6FDF8",
"5	c #F3FDF6",
"6	c #F0FCF3",
"7	c #A3E9B5",
"8	c #0FCF3F",
"9	c #01CB34",
"0	c #0EBB39",
"a	c #F2FCF5",
"b	c #EFFCF2",
"c	c #ECFBF0",
"d	c #E9FAEE",
"e	c #D8F6DF",
"f	c #47D96C",
"g	c #0CB837",
"h	c #EDFBF1",
"i	c #EAFBEF",
"j	c #E8FAED",
"k	c #E5F9EA",
"l	c #D4F4DC",
"m	c #45C866",
"n	c #00C331",
"o	c #09B735",
"p	c #2DD056",
"q	c #E6FAEB",
"r	c #E3F9E9",
"s	c #9AE2AC",
"t	c #0DB437",
"u	c #00B22C",
"v	c #01CB33",
"w	c #06B532",
"x	c #21CE4C",
"y	c #45C666",
"z	c #00B02C",
"A	c #00B92E",
"B	c #00CA33",
"C	c #02C333",
"D	c #03B930",
"E	c #9AEBAF",
"F	c #04B630",
"G	c #02BE31",
"H	c #01B62E",
"I	c #01B42E",
"J	c #0EBF3A",
"K	c #0DBC39",
"L	c #06B732",
"M	c #03B830",
"     .+@#$%     ",
"   &*=-;;>,')   ",
"  !~;;;;;;;;{]  ",
" &~;;;;;;;;;;^/ ",
" *;;;;(_;;;;;;: ",
"<=;;;;[}|;;;;;12",
"3-;;;;45678;;;90",
"@;;;;;abcdef;;;g",
"#;;;;;hijklmn;;o",
"p>;;;;dqrstun;vw",
"x,;;;;klyzAB;;CD",
" ';;;;Etun;;;;F ",
" ){;;;;AB;;;;GH ",
"  ]^;;;;;;;;GI  ",
"   /:19;;vCFH   ",
"     JKgoLM     "};
