/* XPM */
static char * play_xpm[] = {
"16 16 9 1",
" 	c None",
".	c #FFFFFF",
"+	c #000000",
"@	c #1D1D1D",
"#	c #010101",
"$	c #1B1B1B",
"%	c #151515",
"&	c #040404",
"*	c #050505",
"..              ",
".+..            ",
".++@..          ",
".+++#$..        ",
".+++++#$..      ",
".+++++++#$..    ",
".+++++++++#$..  ",
".++++++++++++%..",
".+++++++++++&+..",
".+++++++++*+..  ",
".+++++++*+..    ",
".+++++*+..      ",
".+++&+..        ",
".+++..          ",
".+..            ",
"..              "};
