/* XPM */
static char * stop_xpm[] = {
"16 16 90 1",
" 	c None",
".	c #D24F2E",
"+	c #D25131",
"@	c #D15334",
"#	c #CF5131",
"$	c #CD4B2A",
"%	c #CB4523",
"&	c #D3502F",
"*	c #D35232",
"=	c #CB3914",
"-	c #C62A03",
";	c #C32700",
">	c #C32903",
",	c #C6340F",
"'	c #C74321",
")	c #C73F1D",
"!	c #D45434",
"~	c #CF4320",
"{	c #C42700",
"]	c #C12600",
"^	c #BE2600",
"/	c #BD2600",
"(	c #BC2600",
"_	c #C33613",
":	c #C33D1B",
"<	c #BF2600",
"[	c #BB2500",
"}	c #B82500",
"|	c #B62400",
"1	c #C03310",
"2	c #C13714",
"3	c #BA2500",
"4	c #B22400",
"5	c #B02300",
"6	c #AF2300",
"7	c #BC3513",
"8	c #D24D2C",
"9	c #FFFFFF",
"0	c #FFFEFE",
"a	c #FEFBFA",
"b	c #FDF8F6",
"c	c #FCF4F2",
"d	c #FBF1EE",
"e	c #B12300",
"f	c #BE2B07",
"g	c #BC300D",
"h	c #D35535",
"i	c #FEFBFB",
"j	c #FDF8F7",
"k	c #FCF5F3",
"l	c #FCF1EF",
"m	c #FBEEEB",
"n	c #951E00",
"o	c #BD2701",
"p	c #B72F0E",
"q	c #FEFCFB",
"r	c #FDF5F3",
"s	c #FCF2F0",
"t	c #FBEFEB",
"u	c #FAEBE8",
"v	c #B32D0C",
"w	c #FDF9F8",
"x	c #FDF6F4",
"y	c #FBEFEC",
"z	c #FAECE8",
"A	c #F9E8E4",
"B	c #B22B09",
"C	c #CD4D2D",
"D	c #FCF3F1",
"E	c #FBEFED",
"F	c #FAECE9",
"G	c #F9E9E5",
"H	c #F9E6E1",
"I	c #BC2601",
"J	c #B02806",
"K	c #CB4321",
"L	c #FBF0ED",
"M	c #FAEDE9",
"N	c #FAE9E5",
"O	c #F8E3DD",
"P	c #B82702",
"Q	c #B42603",
"R	c #B02603",
"S	c #B52602",
"T	c #B12401",
"U	c #AF2401",
"V	c #BC310E",
"W	c #B82F0D",
"X	c #B22806",
"Y	c #B32603",
"     .+@#$%     ",
"   &*=-;;>,')   ",
"  !~{]^/(/^]_:  ",
" &~;<[}|||}[<12 ",
" *{<3|45654|3<7 ",
"8=][|90abcde|[fg",
"h-^}49ijklmn4}op",
"@;/|5qjrstun5|/v",
"#;(|6wxsyzAn6|(B",
"C>/|5xDEFGHn5|IJ",
"K,^}4DLMNHOn4}PQ",
" '][|ennnnnn|[R ",
" )_<3|45654|3ST ",
"  :1<[}|||}[SU  ",
"   27fo/(IPRT   ",
"     VWvBXY     "};
