/* XPM */
const static char * changeView_xpm[] = {
"16 16 4 1",
" 	c None",
".	c #FFFFFF",
"+	c #6C6C6C",
"@	c #000000",
"........  +@    ",
".@@@@@@.   +@   ",
".@@@@@@.    +@  ",
".@@@@@@.    +@  ",
".@@@@@@.  +@@@@@",
".@@@@@@.   +@@@ ",
".@@@@@@.    +@  ",
"........        ",
"          ......",
"   @+    .+@@@..",
"  @@@+  ......@.",
" @@@@@+ .@+@@.@.",
"   @+   .@+@@.@.",
"   @+   .@+++.+.",
"    @+  .+@@@.. ",
"     @+ ......  "};
