/* XPM */
const static char * gb16_xpm[] = {
"16 16 120 2",
"  	c None",
". 	c #A4A4A4",
"+ 	c #C7C7C7",
"@ 	c #C3C4C3",
"# 	c #C7C8C7",
"$ 	c #A3A3A3",
"% 	c #BCBCBC",
"& 	c #E8E8E9",
"* 	c #DEDEE2",
"= 	c #DEDEE7",
"- 	c #DFDEE2",
"; 	c #E8E7E8",
"> 	c #B8B8B8",
", 	c #BBB9C4",
"' 	c #A9A49D",
") 	c #AEA67C",
"! 	c #AEA67F",
"~ 	c #AAA49F",
"{ 	c #BBB8C3",
"] 	c #BEBBCA",
"^ 	c #AEA685",
"/ 	c #BBAC38",
"( 	c #BBAC3E",
"_ 	c #BBAB38",
": 	c #AEA689",
"< 	c #BDBAC9",
"[ 	c #AEA688",
"} 	c #BBAC40",
"| 	c #BCAD47",
"1 	c #BCAE48",
"2 	c #BCAD43",
"3 	c #AFA78D",
"4 	c #B8B9B8",
"5 	c #B0A886",
"6 	c #BCAC37",
"7 	c #B8A730",
"8 	c #B3A122",
"9 	c #AF9B11",
"0 	c #9C926F",
"a 	c #ABA8BB",
"b 	c #A8A8A7",
"c 	c #BBB7C5",
"d 	c #9F978B",
"e 	c #998D49",
"f 	c #95873E",
"g 	c #93863B",
"h 	c #938537",
"i 	c #8A8275",
"j 	c #B3B0BE",
"k 	c #A4A4A3",
"l 	c #B9B9B9",
"m 	c #D5D4D6",
"n 	c #C3C1C9",
"o 	c #C2C1CD",
"p 	c #C3C2CF",
"q 	c #C2C2CF",
"r 	c #C6C5CB",
"s 	c #E6E6E5",
"t 	c #A8A8A8",
"u 	c #F1F1F0",
"v 	c #EAEAEA",
"w 	c #EAEBEA",
"x 	c #E6E7E6",
"y 	c #E7EAE8",
"z 	c #EDF0EE",
"A 	c #A2A2A2",
"B 	c #A6A6A6",
"C 	c #BFBFBF",
"D 	c #545454",
"E 	c #C9C9C9",
"F 	c #E5E5E5",
"G 	c #E2E3E2",
"H 	c #E6F3EC",
"I 	c #D29EB9",
"J 	c #C7759F",
"K 	c #A4ABA7",
"L 	c #ABABAB",
"M 	c #7A7A7A",
"N 	c #050505",
"O 	c #8F8F8F",
"P 	c #ECEDED",
"Q 	c #E1DDDF",
"R 	c #C06393",
"S 	c #CBA3B8",
"T 	c #D8BDCB",
"U 	c #A4A7A5",
"V 	c #E4E4E4",
"W 	c #E6E6E6",
"X 	c #E3E4E4",
"Y 	c #E3E1E2",
"Z 	c #C99BB2",
"` 	c #DDD8DA",
" .	c #EFF5F2",
"..	c #A3A2A2",
"+.	c #ECECEC",
"@.	c #D9D8D9",
"#.	c #DADADB",
"$.	c #D8D7D8",
"%.	c #E7EDEA",
"&.	c #DADBDB",
"*.	c #DBDBDB",
"=.	c #EBEBEB",
"-.	c #E2E2E2",
";.	c #D2D2D3",
">.	c #D6D6D7",
",.	c #D4D3D4",
"'.	c #D5D6D5",
").	c #D3D3D3",
"!.	c #9F9F9F",
"~.	c #F2F2F2",
"{.	c #E9E9E9",
"].	c #D4D4D4",
"^.	c #8E8E8E",
"/.	c #888888",
"(.	c #B6B6B6",
"_.	c #B1B1B1",
":.	c #B2B2B2",
"<.	c #ADADAD",
"[.	c #B0B0B0",
"}.	c #959595",
"      . + @ @ @ @ @ @ # $       ",
"      % & * = = = = - ; %       ",
"      > , ' ) ! ! ) ~ { >       ",
"      > ] ^ / ( ( _ : < >       ",
"      > ] [ } | 1 2 3 ] 4       ",
"      > ] 5 6 7 8 9 0 a b       ",
"      > c d e f g h i j k       ",
"      l m n o p p q r s .       ",
"      t u v w x x x y z A       ",
"      B C D E F G H I J K       ",
"      L M N O P Q R S T U       ",
"      . V A W X Y Z `  ...      ",
"      A +.+.@.#.$.%.&.*.A       ",
"      $ =.-.;.>.,.'.E ).!.      ",
"      B ~.{.=.=.{.].].W ^.      ",
"      /.(._._._.:.<.[.}.        "};
