/* XPM */
const static char * gb16_xpm[] = {
"16 16 6 1",
" 	c None",
".	c #000000",
"+	c #E2E2E2",
"@	c #A49007",
"#	c #AE0F61",
"$	c #948F9E",
"   ...........  ",
"   .+++++++++.  ",
"   .+.......+.  ",
"   .+.@@@@@.+.  ",
"   .+.@@@@@.+.  ",
"   .+.@@@@@.+.  ",
"   .+.......+.  ",
"   .+++++++++.  ",
"   .+++++++++.  ",
"   .+.+++++##.  ",
"   ....++####.  ",
"   .+.+++##++.  ",
"   .+++++++++.  ",
"   .++$+$++++.  ",
"   .++++++++.   ",
"   .........    "};
