/* XPM */
const static char * gb32_xpm[] = {
"32 32 234 2",
"  	c None",
". 	c #858585",
"+ 	c #9C9C9C",
"@ 	c #9D9D9D",
"# 	c #818181",
"$ 	c #909090",
"% 	c #E8E8E8",
"& 	c #EFEFEF",
"* 	c #EDEDED",
"= 	c #919191",
"- 	c #8F8F8F",
"; 	c #E4E4E4",
"> 	c #EEEEEE",
", 	c #E5E5E5",
"' 	c #E6E6E6",
") 	c #D3D3D5",
"! 	c #C7C6CB",
"~ 	c #C9C8CC",
"{ 	c #CAC8CD",
"] 	c #CAC8CE",
"^ 	c #C8C7CB",
"/ 	c #D1D1D3",
"( 	c #E6E7E6",
"_ 	c #BAB8BE",
": 	c #A8A4B0",
"< 	c #ABA7B2",
"[ 	c #AAA5AE",
"} 	c #A9A5AD",
"| 	c #AAA6AF",
"1 	c #A9A4B0",
"2 	c #B6B4BB",
"3 	c #BDBBC1",
"4 	c #ADA8B4",
"5 	c #AEABBA",
"6 	c #ADA36C",
"7 	c #B5A74D",
"8 	c #B4A752",
"9 	c #B4A74D",
"0 	c #ADA372",
"a 	c #ADA9B4",
"b 	c #B9B7BE",
"c 	c #AEAABA",
"d 	c #B2A660",
"e 	c #BDAD3D",
"f 	c #BCAD42",
"g 	c #BDAD3C",
"h 	c #B1A667",
"i 	c #AEAABB",
"j 	c #B1A662",
"k 	c #BCAC40",
"l 	c #BBAC45",
"m 	c #BCAC3F",
"n 	c #B0A669",
"o 	c #AEABBB",
"p 	c #BBAC46",
"q 	c #BCAD47",
"r 	c #BDAD42",
"s 	c #B2A76B",
"t 	c #AFACBC",
"u 	c #AFABB5",
"v 	c #BBB9BF",
"w 	c #BCAE49",
"x 	c #BCAD48",
"y 	c #BAAB43",
"z 	c #B8A83D",
"A 	c #B7A631",
"B 	c #A89C5A",
"C 	c #A4A0B2",
"D 	c #A29DAA",
"E 	c #B0ACB5",
"F 	c #E2E2E1",
"G 	c #848484",
"H 	c #B2A763",
"I 	c #BEAF43",
"J 	c #BCAD44",
"K 	c #B7A738",
"L 	c #B19F27",
"M 	c #AC9919",
"N 	c #A7940E",
"O 	c #A69108",
"P 	c #A69100",
"Q 	c #958734",
"R 	c #928DA4",
"S 	c #908A9B",
"T 	c #A09DA7",
"U 	c #DDDDDC",
"V 	c #696969",
"W 	c #ADA9B5",
"X 	c #B0ACBC",
"Y 	c #ACA15C",
"Z 	c #AD9C24",
"` 	c #A49111",
" .	c #9F8B04",
"..	c #9E8A01",
"+.	c #9E8A02",
"@.	c #9F8B03",
"#.	c #9F8C05",
"$.	c #A08C00",
"%.	c #938535",
"&.	c #938FA5",
"*.	c #8F8A9A",
"=.	c #ABA8B0",
"-.	c #E0E0DF",
";.	c #6A6A6A",
">.	c #BCB9C0",
",.	c #9E9AA9",
"'.	c #8F8987",
").	c #8C8476",
"!.	c #8D8578",
"~.	c #8D867B",
"{.	c #8E867B",
"].	c #8E8679",
"^.	c #8D8685",
"/.	c #8E899B",
"(.	c #918D9A",
"_.	c #D1D1D2",
":.	c #DFDFDF",
"<.	c #E7E7E6",
"[.	c #C5C4C8",
"}.	c #A7A4AD",
"|.	c #A3A0A9",
"1.	c #A5A2AE",
"2.	c #A5A3B1",
"3.	c #A4A2AE",
"4.	c #ADABB2",
"5.	c #CFCFD0",
"6.	c #E8E8E7",
"7.	c #DCDCDC",
"8.	c #E1E1E2",
"9.	c #E3E4E3",
"0.	c #E4E5E4",
"a.	c #E6E6E5",
"b.	c #7F7F7F",
"c.	c #DBDBDB",
"d.	c #E2E2E2",
"e.	c #E3E3E3",
"f.	c #ECECEC",
"g.	c #E9E9E9",
"h.	c #E1E1E1",
"i.	c #E4EAE7",
"j.	c #E5EEEA",
"k.	c #E5E8E7",
"l.	c #DCDBDC",
"m.	c #EAEAEA",
"n.	c #606060",
"o.	c #F3F3F3",
"p.	c #E3E7E5",
"q.	c #D5A3BD",
"r.	c #C36395",
"s.	c #DCCBD4",
"t.	c #DDE0DF",
"u.	c #D4D4D4",
"v.	c #A8A8A8",
"w.	c #0B0B0B",
"x.	c #444444",
"y.	c #BDBDBD",
"z.	c #E4E9E6",
"A.	c #E6F1EB",
"B.	c #B62E72",
"C.	c #9F0044",
"D.	c #BD8CA4",
"E.	c #E1E9E5",
"F.	c #8B8B8B",
"G.	c #000000",
"H.	c #0A0A0A",
"I.	c #C8C8C8",
"J.	c #D7AFC4",
"K.	c #CA81A6",
"L.	c #E0DBDE",
"M.	c #C790AC",
"N.	c #A95681",
"O.	c #D4CCD0",
"P.	c #DFE0DF",
"Q.	c #BFBFBF",
"R.	c #777777",
"S.	c #070707",
"T.	c #323232",
"U.	c #8D8D8D",
"V.	c #D7D7D7",
"W.	c #E2E4E3",
"X.	c #E2DFE1",
"Y.	c #B72A72",
"Z.	c #A00047",
"`.	c #BB91A7",
" +	c #E9F7EF",
".+	c #E4EDE9",
"++	c #E6E8E7",
"@+	c #E7E7E7",
"#+	c #313131",
"$+	c #757575",
"%+	c #F9F9F9",
"&+	c #E2E3E2",
"*+	c #E4E6E5",
"=+	c #BF759B",
"-+	c #A14273",
";+	c #D0C7CC",
">+	c #E5E7E6",
",+	c #DEDEDE",
"'+	c #E0E0E0",
")+	c #E2E9E6",
"!+	c #D0D0D0",
"~+	c #DDDDDD",
"{+	c #BEBDC1",
"]+	c #D2D2D3",
"^+	c #E6E7E7",
"/+	c #C1C0C4",
"(+	c #D2D1D3",
"_+	c #CCCCCC",
":+	c #CBCBCB",
"<+	c #CFCFCF",
"[+	c #BFBEC1",
"}+	c #B4B3B7",
"|+	c #E4E4E3",
"1+	c #C2C1C4",
"2+	c #B2B0B4",
"3+	c #D5D5D5",
"4+	c #CACACA",
"5+	c #CDCDCD",
"6+	c #6C6C6C",
"7+	c #D1D1D1",
"8+	c #C9C9C9",
"9+	c #6B6B6B",
"0+	c #CECECE",
"a+	c #D8D8D8",
"b+	c #616161",
"c+	c #D2D2D2",
"d+	c #A3A3A3",
"e+	c #ADADAD",
"f+	c #5B5B5B",
"g+	c #5F5F5F",
"h+	c #838383",
"i+	c #868686",
"j+	c #727272",
"k+	c #555555",
"            . + @ @ @ @ @ @ @ @ @ @ @ @ @ @ @ @ + #             ",
"            $ % & * * * * * * * * * * * * * * & % =             ",
"            - ; * * * * * * * * * * * * * * * > , -             ",
"            - ' ) ! ~ { ] ] ] ] ] ] ] ] { ~ ^ / , -             ",
"            - ( _ : < [ } } } } } } } } | < 1 2 , -             ",
"            - ( 3 4 5 6 7 8 8 8 8 8 8 9 0 5 a b , -             ",
"            - ( 3 4 c d e f f f f f f g h i a b , -             ",
"            - ( 3 4 c j k l l l l l l m n o a b , -             ",
"            - ( 3 4 c j k l l l l l l m n o a b , -             ",
"            - ( 3 4 c j k l l l l p q r s t u v , =             ",
"            - ( 3 4 c j k p q w x y z A B C D E F G             ",
"            - ( 3 4 c H I J K L M N O P Q R S T U V             ",
"            - ( 3 W X Y Z `  ...+.@.#.$.%.&.*.=.-.;.            ",
"            - ( >.: ,.'.).!.~.{.{.{.{.].^./.(._.:.;.            ",
"            - <.[.}.|.1.2.2.2.2.2.2.2.2.3.4.5.6.7.;.            ",
"            $ 8., 9.0.0.0.0.0.0.0.0.0.0.0.a.a.; 7.;.            ",
"            b.c.; d.e.e.d.d.d.d.d.d.d.d.d.d.d.; 7.;.            ",
"            V 7.; d.f.g.h.d.d.d.d.d.d.d.d.i.j.k.l.;.            ",
"            ;.c.m.' n.- o.e.d.d.d.d.d.d.p.q.r.s.t.;.            ",
"            ;.:.u.v.w.x.y.7.e.d.d.d.z.A.; B.C.D.E.;.            ",
"            ;.g.F.G.G.G.H.I.% d.d.p.J.K.L.M.N.O.P.;.            ",
"            ;.d.Q.R.S.T.U.V.; d.W.X.Y.Z.`. +.+++l.;.            ",
"            ;.c.f.@+#+$+%+; d.d.&+*+=+-+;+>+d.; 7.;.            ",
"            ;.7.; d.,+'+d.d.d.d.d.d.)+E.*+d.e., 7.;.            ",
"            ;.7.; d.; e.d.' e.d.' e.d.e.e.h.!+h.~+;.            ",
"            ;.7.; d.d.d.; {+]+^+/+(+, ; c._+:+<+:.;.            ",
"            ;.7.; d.d., [+}+|+1+2+h.e.3+4+:+_+_+5+6+            ",
"            ;.7.; d.d.d.,+a.e.,+<.c.7+4+:+:+8+5+!+9+            ",
"            ;.7.; d.d.d.e.d.d.e.e.~+8+0+:+4+5+'+a+b+            ",
"            ;.7.; d.d.d.d.d.d.d.d., 3+_+:+c+d.& d+              ",
"            9+d.m.% % % % % % % % % m.u.'+% ; e+f+              ",
"            g+h+i+. . . . . . . . . . i+i+i+j+k+                "};
