/* XPM */
const static char * gb32_xpm[] = {
"32 32 166 2",
"  	c None",
". 	c #DEDEDE",
"+ 	c #DDDDDD",
"@ 	c #E0E0E0",
"# 	c #E1E1E1",
"$ 	c #E6E7E6",
"% 	c #E7E8E7",
"& 	c #E4E4E4",
"* 	c #E6E6E6",
"= 	c #BDBCBF",
"- 	c #B6B5BB",
"; 	c #B6B5BA",
"> 	c #B7B5BC",
", 	c #B7B5BB",
"' 	c #E8E8E8",
") 	c #EAEAE9",
"! 	c #95929C",
"~ 	c #8E8999",
"{ 	c #8A8592",
"] 	c #898491",
"^ 	c #8B8594",
"/ 	c #ECEDEC",
"( 	c #E9E9E9",
"_ 	c #9A97A1",
": 	c #948F9E",
"< 	c #948FA7",
"[ 	c #908125",
"} 	c #9E8C10",
"| 	c #9D8B10",
"1 	c #9E8C0C",
"2 	c #8F833E",
"3 	c #948FA5",
"4 	c #ECECEB",
"5 	c #938FA8",
"6 	c #95851D",
"7 	c #A69106",
"8 	c #A49007",
"9 	c #A69102",
"0 	c #938538",
"a 	c #938FA6",
"b 	c #A59106",
"c 	c #A39007",
"d 	c #A38F07",
"e 	c #A59102",
"f 	c #928538",
"g 	c #95851E",
"h 	c #92821A",
"i 	c #A28E02",
"j 	c #A18D02",
"k 	c #A28E00",
"l 	c #908335",
"m 	c #948FA6",
"n 	c #918C9C",
"o 	c #A6A3AB",
"p 	c #EAEBEA",
"q 	c #E9EAE9",
"r 	c #97949E",
"s 	c #918C9D",
"t 	c #8B8485",
"u 	c #8C8581",
"v 	c #8C8580",
"w 	c #8C8689",
"x 	c #8F8A9B",
"y 	c #8D8896",
"z 	c #D6D5D6",
"A 	c #E5E5E5",
"B 	c #E7E7E7",
"C 	c #B0AEB4",
"D 	c #A9A6AF",
"E 	c #A9A6AE",
"F 	c #A9A7B1",
"G 	c #A9A6B2",
"H 	c #A8A6B0",
"I 	c #AEACB2",
"J 	c #D8D8D8",
"K 	c #E2E2E2",
"L 	c #E6E6E5",
"M 	c #E5E6E5",
"N 	c #E8E9E8",
"O 	c #EEEEEE",
"P 	c #E3E8E5",
"Q 	c #E5EEE9",
"R 	c #E2E3E3",
"S 	c #DFDFDF",
"T 	c #474747",
"U 	c #7F7F7F",
"V 	c #D4A0BB",
"W 	c #BE528A",
"X 	c #DDD4D9",
"Y 	c #E3E3E3",
"Z 	c #D0D0D0",
"` 	c #BDBDBD",
" .	c #000000",
"..	c #414141",
"+.	c #CBCBCB",
"@.	c #E2E6E4",
"#.	c #E4EBE7",
"$.	c #B01163",
"%.	c #A20045",
"&.	c #B891A5",
"*.	c #E8EAE9",
"=.	c #EAEAEA",
"-.	c #7D7D7D",
";.	c #D1D1D1",
">.	c #E3E7E5",
",.	c #D7ADC3",
"'.	c #C66D9B",
").	c #E3E5E4",
"!.	c #C798B0",
"~.	c #A25A7F",
"{.	c #DBDADB",
"].	c #B9B9B9",
"^.	c #878787",
"/.	c #353535",
"(.	c #969696",
"_.	c #DCDCDC",
":.	c #E5ECE8",
"<.	c #AD045B",
"[.	c #A1004B",
"}.	c #C29DB0",
"|.	c #E7EFEB",
"1.	c #E7EDEA",
"2.	c #E2E3E2",
"3.	c #F2F2F2",
"4.	c #222222",
"5.	c #737373",
"6.	c #FDFDFD",
"7.	c #E5EAE7",
"8.	c #BC7198",
"9.	c #9C406F",
"0.	c #D6D7D7",
"a.	c #E3E4E3",
"b.	c #E7F1EC",
"c.	c #E3E2E2",
"d.	c #CACACA",
"e.	c #B9B7BC",
"f.	c #EBEBEB",
"g.	c #BDBBC1",
"h.	c #D2D1D2",
"i.	c #D7D7D7",
"j.	c #C8C8C8",
"k.	c #D2D2D2",
"l.	c #E7E7E6",
"m.	c #ADABB1",
"n.	c #BBBBBD",
"o.	c #B4B3B8",
"p.	c #B6B5B8",
"q.	c #CCCCCC",
"r.	c #C5C5C5",
"s.	c #CDCDCD",
"t.	c #E5E5E4",
"u.	c #D5D5D5",
"v.	c #C7C7C7",
"w.	c #CECECE",
"x.	c #C9C9C9",
"y.	c #C3C3C3",
"z.	c #CFCFCF",
"A.	c #D4D4D4",
"B.	c #C4C4C4",
"C.	c #F0F0F0",
"D.	c #7C7C7C",
"E.	c #939393",
"F.	c #696969",
"G.	c #6B6B6B",
"H.	c #6F6F6F",
"I.	c #6D6D6D",
"                                                                ",
"              . + + + + + + + + + + + + + + + + @               ",
"              # $ % % % % % % % % % % % % % % $ &               ",
"              * = - ; > > > > > > > > > , ; - = '               ",
"              ) ! ~ ~ { ] ] ] ] ] ] ] ] ^ ~ ~ ! /               ",
"              ( _ : < [ } | | | | | | 1 2 3 : _ 4               ",
"              ( _ : 5 6 7 8 8 8 8 8 8 9 0 a : _ 4               ",
"              ( _ : 5 6 b 8 8 8 8 c d e f a : _ 4               ",
"              ( _ : 5 6 b 8 8 8 8 8 d e f a : _ 4               ",
"              ( _ : 5 6 b 8 8 8 8 8 d e f a : _ 4               ",
"              ( _ : 5 6 b 8 8 8 8 8 d e f a : _ 4               ",
"              ( _ : 5 g b d d d d d d e f a : _ 4               ",
"              ( _ : 5 h i j j j j j j k l m n o p               ",
"              q r n s t u u u u u u u v w x y z A               ",
"              B C D E F G G G G G G G G H I J & A               ",
"              K L M L L L L L L L L L L M N & # A               ",
"              K # # # # # # # # # # # # # # K K A               ",
"              K K # O ( # # K K K K # K # P Q R A               ",
"              K S & T U O K # K K K K # P V W X A               ",
"              Y Z `  ...+.. K K K # @.#.#.$.%.&.*.              ",
"              =.-. . . . .;.A K # >.,.'.).!.~.{.A               ",
"              A ].^. ./.(._.Y # K :.<.[.}.|.1.2.A               ",
"              K & 3.4.5.6.K # # K 7.8.9.0.a.# K A               ",
"              K K # A & # K K K K # :.b.c.K Y K A               ",
"              K K # K K # A K # A K # # Y Y d.K A               ",
"              K # # K # p e.z f.g.h.a.A i.j.k.j.'               ",
"              K K K K l.m.n.l.o.p.& S k.+.q.r.s.i.              ",
"              K K K K # L A # t.B u.u.d.v.+.w.x._.              ",
"              K K K K # K # # K K # y.w.z.x.x.Y Z               ",
"              K # # # # # # # # # Y A.w.B.u.S C.D.              ",
"              # K K K K K K K K K # A +._.K . E.                ",
"              D.F.G.G.G.G.G.G.G.G.G.G.H.I.G.                    "};
