/* XPM */
const static char * gb64_xpm[] = {
"64 64 403 2",
"  	c None",
". 	c #818181",
"+ 	c #7C7C7C",
"@ 	c #7F7F7F",
"# 	c #8D8D8D",
"$ 	c #BBBBBB",
"% 	c #848484",
"& 	c #969696",
"* 	c #F0F0F0",
"= 	c #EFEFEF",
"- 	c #959595",
"; 	c #E9E9E9",
"> 	c #EAEAEA",
", 	c #E8E8E8",
"' 	c #E3E4E3",
") 	c #E7E7E7",
"! 	c #EEEEEE",
"~ 	c #CBCACC",
"{ 	c #A9A6AF",
"] 	c #AEABB3",
"^ 	c #AAA7B0",
"/ 	c #C2C0C4",
"( 	c #EDEEED",
"_ 	c #C6C5C8",
": 	c #AAA5B1",
"< 	c #AFAAB6",
"[ 	c #AFABB7",
"} 	c #AFABB8",
"| 	c #ABA6B3",
"1 	c #BDBBBF",
"2 	c #C7C6C9",
"3 	c #AAA6B1",
"4 	c #AFABB6",
"5 	c #ADA9B3",
"6 	c #ACA8B0",
"7 	c #AEAAB3",
"8 	c #ABA7B3",
"9 	c #BEBCC0",
"0 	c #B0ACBD",
"a 	c #A49C7D",
"b 	c #AA9D48",
"c 	c #ADA04F",
"d 	c #AEA14F",
"e 	c #A89B49",
"f 	c #A59F8C",
"g 	c #B0ADBC",
"h 	c #AFACBD",
"i 	c #A8A076",
"j 	c #B9AA3B",
"k 	c #BCAD42",
"l 	c #BDAE42",
"m 	c #B7A73B",
"n 	c #A8A187",
"o 	c #A8A078",
"p 	c #B8A93E",
"q 	c #BBAC45",
"r 	c #BCAD45",
"s 	c #B6A73E",
"t 	c #A8A188",
"u 	c #BBAD46",
"v 	c #BCAD47",
"w 	c #BCAE48",
"x 	c #BCAE49",
"y 	c #BDAF49",
"z 	c #B7A841",
"A 	c #A9A28A",
"B 	c #AEAAB5",
"C 	c #AAA6B2",
"D 	c #BDBCC0",
"E 	c #BCAC47",
"F 	c #B9AA41",
"G 	c #B7A73A",
"H 	c #B4A332",
"I 	c #B19F2A",
"J 	c #AF9D22",
"K 	c #A59313",
"L 	c #938A6C",
"M 	c #9B96AC",
"N 	c #9994A2",
"O 	c #9893A2",
"P 	c #9893A1",
"Q 	c #938E9D",
"R 	c #ABA9AF",
"S 	c #E9E9E8",
"T 	c #E3E3E3",
"U 	c #7B7B7B",
"V 	c #646464",
"W 	c #BBAC46",
"X 	c #BCAD48",
"Y 	c #B8A83C",
"Z 	c #B3A22E",
"` 	c #AD9C21",
" .	c #A99614",
"..	c #A6920C",
"+.	c #A49007",
"@.	c #A38F04",
"#.	c #A38E03",
"$.	c #A48F03",
"%.	c #9C8700",
"&.	c #8A8160",
"*.	c #9490A6",
"=.	c #8E8999",
"-.	c #A7A5AB",
";.	c #E8E8E7",
">.	c #E2E2E2",
",.	c #707070",
"'.	c #535353",
").	c #BBAB44",
"!.	c #B5A535",
"~.	c #AE9D23",
"{.	c #A89512",
"].	c #A49008",
"^.	c #A38F05",
"/.	c #A48F06",
"(.	c #A59107",
"_.	c #9D8900",
":.	c #8B8262",
"<.	c #9591A7",
"[.	c #948F9E",
"}.	c #8F8999",
"|.	c #A8A6AC",
"1.	c #717171",
"2.	c #555555",
"3.	c #A9A078",
"4.	c #BBAC41",
"5.	c #BEAF47",
"6.	c #B8A83A",
"7.	c #B09E23",
"8.	c #A9950F",
"9.	c #A59005",
"0.	c #A49004",
"a.	c #A59106",
"b.	c #A69207",
"c.	c #9E8A00",
"d.	c #8C8797",
"e.	c #B2B1B5",
"f.	c #B1AEBF",
"g.	c #A59C73",
"h.	c #A89722",
"i.	c #A18F0F",
"j.	c #9A8700",
"k.	c #998600",
"l.	c #9B8700",
"m.	c #9C8800",
"n.	c #938000",
"o.	c #887F60",
"p.	c #95909F",
"q.	c #8A8693",
"r.	c #CCCCCC",
"s.	c #B0ACB7",
"t.	c #B0ACB6",
"u.	c #A7A3B1",
"v.	c #918B89",
"w.	c #898067",
"x.	c #8A8269",
"y.	c #8B836C",
"z.	c #8C836D",
"A.	c #8A816A",
"B.	c #8D888B",
"C.	c #9590A1",
"D.	c #A19FA5",
"E.	c #E6E6E5",
"F.	c #ABA7B2",
"G.	c #B1ADB8",
"H.	c #9B95A4",
"I.	c #9590A2",
"J.	c #9691A7",
"K.	c #9691A2",
"L.	c #948E9F",
"M.	c #8A8595",
"N.	c #96949C",
"O.	c #DCDCDB",
"P.	c #E5E5E5",
"Q.	c #EEEFEE",
"R.	c #C6C5C7",
"S.	c #A29DA9",
"T.	c #9893A0",
"U.	c #8C8796",
"V.	c #8B8695",
"W.	c #8D8796",
"X.	c #8D8896",
"Y.	c #8B8795",
"Z.	c #8F8B97",
"`.	c #ABA9AE",
" +	c #DEDEDD",
".+	c #EBECEB",
"++	c #DDDDDE",
"@+	c #C3C2C4",
"#+	c #BEBEC0",
"$+	c #C0BFC1",
"%+	c #C7C7C8",
"&+	c #D9D9D9",
"*+	c #E4E4E4",
"=+	c #E7E7E6",
"-+	c #E7E8E7",
";+	c #808080",
">+	c #838383",
",+	c #E1E1E1",
"'+	c #666666",
")+	c #6F6F6F",
"!+	c #545454",
"~+	c #ECECEC",
"{+	c #E3E7E5",
"]+	c #E4EDE9",
"^+	c #E4EBE7",
"/+	c #E2E3E2",
"(+	c #DFDFDF",
"_+	c #9F9F9F",
":+	c #919191",
"<+	c #8C8C8C",
"[+	c #CDCDCD",
"}+	c #E6E6E6",
"|+	c #E3E9E6",
"1+	c #DFCCD6",
"2+	c #D399B7",
"3+	c #D7B2C5",
"4+	c #E4E7E6",
"5+	c #E2E3E3",
"6+	c #212121",
"7+	c #000000",
"8+	c #B5B5B5",
"9+	c #EBEBEB",
"0+	c #DCBACB",
"a+	c #B72872",
"b+	c #AC045B",
"c+	c #AC075C",
"d+	c #C084A3",
"e+	c #E5ECE8",
"f+	c #F3F3F3",
"g+	c #262626",
"h+	c #C1C1C1",
"i+	c #F8F8F8",
"j+	c #E4EAE7",
"k+	c #C45990",
"l+	c #AA0057",
"m+	c #AE0E61",
"n+	c #AF065D",
"o+	c #972760",
"p+	c #D9DEDB",
"q+	c #7D7D7D",
"r+	c #7E7E7E",
"s+	c #181818",
"t+	c #626262",
"u+	c #D1D1D1",
"v+	c #E3E5E4",
"w+	c #E3E6E4",
"x+	c #BE4B87",
"y+	c #AC0059",
"z+	c #B11063",
"A+	c #B1045D",
"B+	c #892C5C",
"C+	c #DAE1DE",
"D+	c #2F2F2F",
"E+	c #070707",
"F+	c #C5C5C5",
"G+	c #E3E8E6",
"H+	c #E2DCDF",
"I+	c #DBBECD",
"J+	c #E0D6DC",
"K+	c #E5E9E7",
"L+	c #E5EAE7",
"M+	c #D1AABE",
"N+	c #9E155C",
"O+	c #9A004F",
"P+	c #840F4B",
"Q+	c #AE9CA5",
"R+	c #E8EBEA",
"S+	c #303030",
"T+	c #DDC1D0",
"U+	c #BC3B7E",
"V+	c #B01163",
"W+	c #B32770",
"X+	c #D2B5C4",
"Y+	c #CFC8CC",
"Z+	c #B29DA8",
"`+	c #C6C3C5",
" @	c #E7EBE9",
".@	c #E0E0E0",
"+@	c #565656",
"@@	c #333333",
"#@	c #343434",
"$@	c #060606",
"%@	c #2D2D2D",
"&@	c #383838",
"*@	c #3D3D3D",
"=@	c #E4E6E5",
"-@	c #C2518B",
";@	c #A90057",
">@	c #AD0C5F",
",@	c #A04674",
"'@	c #E1EAE6",
")@	c #E5E8E6",
"!@	c #E9EEEB",
"~@	c #EDEDED",
"{@	c #242424",
"]@	c #BCBCBC",
"^@	c #F2F2F2",
"/@	c #E2E4E3",
"(@	c #E2E0E1",
"_@	c #B93177",
":@	c #AD065D",
"<@	c #AF0F62",
"[@	c #B0045C",
"}@	c #8D3A64",
"|@	c #E0E8E3",
"1@	c #DADADA",
"2@	c #202020",
"3@	c #B6B6B6",
"4@	c #C3779F",
"5@	c #A00051",
"6@	c #A50054",
"7@	c #880246",
"8@	c #A9949E",
"9@	c #E8ECEA",
"0@	c #5D5D5D",
"a@	c #484848",
"b@	c #4C4C4C",
"c@	c #E2E5E3",
"d@	c #BA9AAA",
"e@	c #9D6E87",
"f@	c #B5A9AF",
"g@	c #E3E2E2",
"h@	c #E7EDEA",
"i@	c #E9F1ED",
"j@	c #E9ECEA",
"k@	c #D4D4D4",
"l@	c #D0D0D0",
"m@	c #E4E4E3",
"n@	c #E5E5E4",
"o@	c #DDDDDD",
"p@	c #DCDCDC",
"q@	c #D8D8D8",
"r@	c #ADADAD",
"s@	c #DEDEDE",
"t@	c #DAD9DC",
"u@	c #D3D2D4",
"v@	c #E6E7E6",
"w@	c #DEDDDF",
"x@	c #D1D0D2",
"y@	c #D6D6D6",
"z@	c #AFAFAF",
"A@	c #C8C8C8",
"B@	c #B9B9B9",
"C@	c #E9E8E8",
"D@	c #C9C7CD",
"E@	c #7B7781",
"F@	c #B5B4B6",
"G@	c #E3E3E2",
"H@	c #E8E9E8",
"I@	c #D0CFD4",
"J@	c #817D88",
"K@	c #A7A6A9",
"L@	c #C2C2C2",
"M@	c #BFBFBF",
"N@	c #CBCBCB",
"O@	c #DEDEDF",
"P@	c #A5A2AC",
"Q@	c #77757D",
"R@	c #E1E0E1",
"S@	c #AFACB5",
"T@	c #76747D",
"U@	c #B0AFB1",
"V@	c #C6C6C6",
"W@	c #BDBDBD",
"X@	c #B2B2B2",
"Y@	c #D3D3D3",
"Z@	c #AEAEAE",
"`@	c #C9C7CB",
" #	c #908F94",
".#	c #D9D9D8",
"+#	c #D2D1D4",
"@#	c #8F8E93",
"##	c #C3C3C3",
"$#	c #BABABA",
"%#	c #B3B3B3",
"&#	c #D2D2D2",
"*#	c #DBDBDB",
"=#	c #727272",
"-#	c #B7B7B7",
";#	c #CFCFCF",
">#	c #747474",
",#	c #C9C9C9",
"'#	c #B4B4B4",
")#	c #D7D7D7",
"!#	c #686868",
"~#	c #575757",
"{#	c #C4C4C4",
"]#	c #C7C7C7",
"^#	c #8E8E8E",
"/#	c #525252",
"(#	c #C0C0C0",
"_#	c #585858",
":#	c #595959",
"<#	c #737373",
"[#	c #A6A6A6",
"}#	c #5E5E5E",
"|#	c #676767",
"1#	c #A4A4A4",
"2#	c #A5A5A5",
"3#	c #A8A8A8",
"4#	c #A0A0A0",
"5#	c #8B8B8B",
"6#	c #515151",
"                          . + + + + + + + + + + + + + + + + + + + + + + + + + + + + + + + + + + + + .                           ",
"                        @ # $ $ $ $ $ $ $ $ $ $ $ $ $ $ $ $ $ $ $ $ $ $ $ $ $ $ $ $ $ $ $ $ $ $ $ $ # %                         ",
"                        @ & * * = = = = = = = = = = = = = = = = = = = = = = = = = = = = = = = = * * & @                         ",
"                        @ - ; > ; ; ; ; ; ; ; ; ; ; ; ; ; ; ; ; ; ; ; ; ; ; ; ; ; ; ; ; ; ; ; ; > ; - @                         ",
"                        @ - ; > ; ; ; ; ; ; ; ; ; ; ; ; ; ; ; ; ; ; ; ; ; ; ; ; ; ; ; ; ; ; ; ; > ; - @                         ",
"                        @ - ; > > > > > > > > > > > > > > > > > > > > > > > > > > > > > > > > > > ; - @                         ",
"                        @ - ; > , ' ' ' ' ' ' ' ' ' ' ' ' ' ' ' ' ' ' ' ' ' ' ' ' ' ' ' ' ' ' ) > ; - @                         ",
"                        @ - ; ! ~ { ] ] ] ] ] ] ] ] ] ] ] ] ] ] ] ] ] ] ] ] ] ] ] ] ] ] ] ] ^ / ( ; - @                         ",
"                        @ - ; ! _ : < < < < [ } } } } } } } } } } } } } } } } } } [ < < < < | 1 ( ; - @                         ",
"                        @ - ; ! 2 3 4 4 4 4 5 6 6 6 6 6 6 6 6 6 6 6 6 6 6 6 6 6 6 7 4 4 4 4 8 9 ( ; - @                         ",
"                        @ - ; ! 2 3 4 4 4 0 a b c c c c c c c c c c c c c c c d e f g 4 4 4 8 9 ( ; - @                         ",
"                        @ - ; ! 2 3 4 4 4 h i j k k k k k k k k k k k k k k k l m n 0 4 4 4 8 9 ( ; - @                         ",
"                        @ - ; ! 2 3 4 4 4 h o p q q q q q q q q q q q q q q q r s t 0 4 4 4 8 9 ( ; - @                         ",
"                        @ - ; ! 2 3 4 4 4 h o p q q q q q q q q q q q q q q q r s t 0 4 4 4 8 9 ( ; - @                         ",
"                        @ - ; ! 2 3 4 4 4 h o p q q q q q q q q q q q q q q q r s t 0 4 4 4 8 9 ( ; - @                         ",
"                        @ - ; ! 2 3 4 4 4 h o p q q q q q q q q q q q q q q q r s t 0 4 4 4 8 9 ( ; - @                         ",
"                        @ - ; ! 2 3 4 4 4 h o p q q q q q q q q q q q q q q q r s t 0 4 4 4 8 9 ( ; - @                         ",
"                        @ - ; ! 2 3 4 4 4 h o p q q q q q q q q q q q q q q q r s t 0 4 4 4 8 9 ( ; - @                         ",
"                        @ - ; ! 2 3 4 4 4 h o p q q q q q q q q q q q q q q q r s t 0 4 4 4 8 9 ( ; - @                         ",
"                        @ - ; ! 2 3 4 4 4 h o p q q q q q q q q q q q q q q q r s t 0 4 4 4 8 9 ( ; - @                         ",
"                        @ - ; ! 2 3 4 4 4 h o p q q q q q q q q q q q u v w x y z A 0 4 4 B C D ( ; & .                         ",
"                        @ - ; ! 2 3 4 4 4 h o p q q q q q q q v x x E F G H I J K L M N O P Q R S T U V                         ",
"                        @ - ; ! 2 3 4 4 4 h o p q q q W X x q Y Z `  ...+.@.#.$.%.&.*.Q Q Q =.-.;.>.,.'.                        ",
"                        @ - ; ! 2 3 4 4 4 h o p q v x ).!.~.{.].#.#.^./.+.+.+.(._.:.<.[.[.[.}.|., >.1.2.                        ",
"                        @ - ; ! 2 3 4 4 4 h 3.4.5.6.7.8.9.$.0.a.(.(.(.(.(.(.(.b.c.:.<.[.[.[.d.e.; >.1.2.                        ",
"                        @ - ; ! 2 3 4 4 4 f.g.h.i.j.k.j.l.l.l.l.l.l.l.l.l.l.l.m.n.o.<.[.[.p.q.r.) >.1.2.                        ",
"                        @ - ; ! 2 3 4 s.t.u.v.w.x.y.z.z.z.z.z.z.z.z.z.z.z.z.z.z.A.B.C.[.p.d.D.E.T >.1.2.                        ",
"                        @ - ; ! 2 F.G.: H.Q I.<.<.<.<.<.<.<.<.<.<.<.<.<.<.<.<.<.J.K.p.L.M.N.O.P.T >.1.2.                        ",
"                        @ - ; Q.R.S.T.U.V.W.X.W.W.W.W.W.W.W.W.W.W.W.W.W.W.W.W.W.W.U.Y.Z.`. +P.>.T >.1.2.                        ",
"                        @ - ; .+++@+#+$+$+$+$+$+$+$+$+$+$+$+$+$+$+$+$+$+$+$+$+$+$+$+%+&+;.*+>.>.T >.1.2.                        ",
"                        @ - > ) *+=+-+-+-+-+-+-+-+-+-+-+-+-+-+-+-+-+-+-+-+-+-+-+-+-+) *+>.>.>.>.T >.1.2.                        ",
"                        ;+& P.T >.>.>.>.>.>.>.>.>.>.>.>.>.>.>.>.>.>.>.>.>.>.>.>.>.>.>.>.>.>.>.>.T >.1.2.                        ",
"                        ;+>+,+T >.>.>.>.>.>.>.>.>.>.>.>.>.>.>.>.>.>.>.>.>.>.>.>.>.>.>.>.>.>.>.>.T >.1.2.                        ",
"                        '+)+>.T >.>.>.>.>.>.>.>.>.>.>.>.>.>.>.>.>.>.>.>.>.>.>.>.>.>.>.>.>.>.>.>.T >.1.2.                        ",
"                        !+1.>.T >.>.>.>.>.>.>.>.>.>.>.>.>.>.>.>.>.>.>.>.>.>.>.>.>.>.>.>.>.>.>.>.T >.1.2.                        ",
"                        2.1.>.T >.>.>.>.~+! = P.,+>.>.>.>.>.>.>.>.>.>.>.>.>.>.>.>.>.>.{+]+^+/+>.T >.1.2.                        ",
"                        2.1.>.T >.>.T (+_+:+<+[+}+>.>.>.>.>.>.>.>.>.>.>.>.>.>.>.>.>.|+1+2+3+4+5+T >.1.2.                        ",
"                        2.1.>.T >.>.P.&+6+7+7+8+9+>.>.>.>.>.>.>.>.>.>.>.>.>.>.>.>.|+0+a+b+c+d+e+T >.1.2.                        ",
"                        2.1.>.T >.~+f+) g+7+7+h+i+= *+>.>.>.>.>.>.>.>.>.>.>.>.>./+j+k+l+m+n+o+p+P.>.1.2.                        ",
"                        2.1.>.*+>.- q+r+s+7+7+t+% + u+}+>.>.>.>.>.>.>.>.>.v+|+w+/+j+x+y+z+A+B+C+P.>.1.2.                        ",
"                        2.1.>.P.,+D+7+7+7+7+7+7+7+E+F+; >.>.>.>.>.>.>.>.G+H+I+J+K+L+M+N+O+P+Q+R+T >.1.2.                        ",
"                        2.1.>.P.>.S+7+7+7+7+7+7+7+E+F+, >.>.>.>.>.>.>.G+T+U+V+W+X+K+L+Y+Z+`+ @>.T >.1.2.                        ",
"                        2.1.>.P..@+@@@#@$@7+7+%@&@*@[+) >.>.>.>.>.>.5+=@-@;@>@l+,@'@>.)@!@-+>.>.T >.1.2.                        ",
"                        2.1.>.T >.) ~@.@{@7+7+]@^@; T >.>.>.>.>.>.>./@(@_@:@<@[@}@|@T >.>.>.>.>.T >.1.2.                        ",
"                        2.1.>.T >.T }+1@2@7+7+3@~+T >.>.>.>.>.>.>.>.>.e+4@5@6@7@8@9@>.>.>.>.>.>.T >.1.2.                        ",
"                        2.1.>.T >.>.P.&+0@a@b@F+, >.>.>.>.>.>.>.>.>.>.' c@d@e@f@K+g@>.>.>.>.>.>.T >.1.2.                        ",
"                        2.1.>.T >.>.>.>.~+! ! *+>.>.>.>.>.>.>.>.>.>.>.>.T h@i@j@>.>.>.>.>.>.>.>.T >.1.2.                        ",
"                        2.1.>.T >.>.>.>.>.>.>.>.>.>.>.>.>.>.>.>.>.>.>.>.>.>.>.>.>.>.>.>.*+*+>.>.T >.1.2.                        ",
"                        2.1.>.T >.>.>.>.>.>.>.>.>.>.>.>.>.>.>.>.>.>.>.>.>.>.>.>.>.>.T }+k@l@P.>.T >.1.2.                        ",
"                        2.1.>.T >.>.>.>.>.>.>.>.>.>.>.*+*+>.>.>.>.m@n@>.>.>.>.>.>.T o@p@q@r@s@T T >.1.2.                        ",
"                        2.1.>.T >.>.>.>.>.>.>.>.>.>.=+t@u@*+>.>.v@w@x@m@>.>.>.>.>.*+y@z@}+A@B@P.T >.1.2.                        ",
"                        2.1.>.T >.>.>.>.>.>.>.>.T C@D@E@F@, G@H@I@J@K@; >.>.>.}+.@8+T L@M@; 3@N@) >.1.2.                        ",
"                        2.1.>.T >.>.>.>.>.>.>.T O@P@Q@$ ) T R@S@T@U@=+>.>.*+P.V@(+L@W@) X@Y@(+Z@p@*+1.2.                        ",
"                        2.1.>.T >.>.>.>.>.>.>.}+`@ #.#> >.P.+#@#l@9+>.>.*+q@.@##$#, %#&#*#z@T r.8+T =#2.                        ",
"                        2.1.>.T >.>.>.>.>.>.>.>.T H@P.>.>.>./+, }+>.>..@}+A@-#, 8+;#o@z@T V@$#; $ ;#>#2.                        ",
"                        2.1.>.T >.>.>.>.>.>.>.>.>.>.>.>.>.>.>.>.>.>.}+##F+; 3@[+(+Z@,+,#B@, %#[+}+.@1.2.                        ",
"                        2.1.>.T >.>.>.>.>.>.>.>.>.>.>.>.>.>.>.>.>.>.T o@z@1@(+z@.@N@-#, '#,#(+)#}+p@!#~#                        ",
"                        2.1.>.T >.>.>.>.>.>.>.>.>.>.>.>.>.>.>.>.>.>.>.}+;#%#) r.8+, -#A@o@V@P.*+, {#~#                          ",
"                        2.1.>.T >.>.>.>.>.>.>.>.>.>.>.>.>.>.>.>.>.>.>.>.}+]@L@> B@]#.@3@,+P.>.>.9+^#/#                          ",
"                        2.1.>.T >.>.>.>.>.>.>.>.>.>.>.>.>.>.>.>.>.>.>.>.T ,+z@y@>.r@&+*+>.>.>.~+(#_#:#                          ",
"                        2.1.>.T >.>.>.>.>.>.>.>.>.>.>.>.>.>.>.>.>.>.>.>.>.}+Y@Z@,+p@o@T >.P.~@A@V +@                            ",
"                        2.<#9+~+9+9+9+9+9+9+9+9+9+9+9+9+9+9+9+9+9+9+9+9+9+9+! Y@>.~@~+9+> o@[#}#2.                              ",
"                        ~#|#1#2#1#1#1#1#1#1#1#1#1#1#1#1#1#1#1#1#1#1#1#1#1#1#1#3#2#1#1#4#5#!#/#_#                                ",
"                          :#6#6#6#6#6#6#6#6#6#6#6#6#6#6#6#6#6#6#6#6#6#6#6#6#6#6#6#6#6#6#/#~#                                    "};
