/* XPM */
const static char * preferences1_xpm[] = {
"32 32 261 2",
"  	c None",
". 	c #FF0000",
"+ 	c #9C0000",
"@ 	c #585858",
"# 	c #8E8E8E",
"$ 	c #8D8D8D",
"% 	c #888888",
"& 	c #920000",
"* 	c #FB0000",
"= 	c #FF0404",
"- 	c #620404",
"; 	c #8F8F8F",
"> 	c #E2E2E2",
", 	c #DCDCDC",
"' 	c #4D0404",
") 	c #EF0404",
"! 	c #FF0909",
"~ 	c #660909",
"{ 	c #919191",
"] 	c #E3E3E3",
"^ 	c #DFDFDF",
"/ 	c #CACACA",
"( 	c #430909",
"_ 	c #E50909",
": 	c #FF0F0F",
"< 	c #690F0F",
"[ 	c #949494",
"} 	c #E0E0E0",
"| 	c #6C6A70",
"1 	c #737078",
"2 	c #DBDBDB",
"3 	c #440F0F",
"4 	c #E30F0F",
"5 	c #FF1717",
"6 	c #6E1717",
"7 	c #979797",
"8 	c #C7C7C7",
"9 	c #7B7881",
"0 	c #9E99A7",
"a 	c #C4C4C4",
"b 	c #4A1717",
"c 	c #E41717",
"d 	c #FF1D1D",
"e 	c #721D1D",
"f 	c #9A9A9A",
"g 	c #CCCCCC",
"h 	c #7C7981",
"i 	c #A09CA9",
"j 	c #7F7741",
"k 	c #8E8129",
"l 	c #928429",
"m 	c #8B7E29",
"n 	c #817953",
"o 	c #CBCBCB",
"p 	c #4F1D1D",
"q 	c #E41D1D",
"r 	c #FF2525",
"s 	c #772525",
"t 	c #9E9E9E",
"u 	c #CECECE",
"v 	c #807E86",
"w 	c #A49FAC",
"x 	c #908642",
"y 	c #AA9A2B",
"z 	c #B09F2B",
"A 	c #A7982B",
"B 	c #8F8655",
"C 	c #CDCDCD",
"D 	c #552525",
"E 	c #E52525",
"F 	c #FF2D2D",
"G 	c #7C2D2D",
"H 	c #A1A1A1",
"I 	c #D0D0D0",
"J 	c #85838A",
"K 	c #A7A3AF",
"L 	c #958A4B",
"M 	c #AF9F33",
"N 	c #B4A433",
"O 	c #AC9C33",
"P 	c #948B5C",
"Q 	c #5B2D2D",
"R 	c #E62D2D",
"S 	c #FF3535",
"T 	c #813535",
"U 	c #A5A5A5",
"V 	c #D2D2D2",
"W 	c #8A878F",
"X 	c #AAA6B2",
"Y 	c #998F52",
"Z 	c #B2A23B",
"` 	c #B7A73B",
" .	c #AFA03B",
"..	c #988F62",
"+.	c #613535",
"@.	c #E73535",
"#.	c #FF3D3D",
"$.	c #863D3D",
"%.	c #A8A8A8",
"&.	c #D4D4D4",
"*.	c #8E8C93",
"=.	c #AEAAB5",
"-.	c #9D9358",
";.	c #B5A642",
">.	c #BAAB42",
",.	c #B2A442",
"'.	c #9C9468",
").	c #683D3D",
"!.	c #E83D3D",
"~.	c #FF4646",
"{.	c #8C4646",
"].	c #ACACAC",
"^.	c #D6D6D6",
"/.	c #949198",
"(.	c #B1AEB9",
"_.	c #A19860",
":.	c #B9AA4B",
"<.	c #BDAE4B",
"[.	c #B6A84B",
"}.	c #A1996F",
"|.	c #6F4646",
"1.	c #E94646",
"2.	c #FF4E4E",
"3.	c #914E4E",
"4.	c #B0B0B0",
"5.	c #D7D7D7",
"6.	c #98969C",
"7.	c #B5B1BC",
"8.	c #A59C67",
"9.	c #BCAE53",
"0.	c #C0B253",
"a.	c #B9AC53",
"b.	c #A59D76",
"c.	c #99969D",
"d.	c #D5D5D5",
"e.	c #754E4E",
"f.	c #EA4E4E",
"g.	c #FF5555",
"h.	c #955555",
"i.	c #B3B3B3",
"j.	c #D9D9D9",
"k.	c #9C9AA0",
"l.	c #B8B4BE",
"m.	c #A59D6A",
"n.	c #B7AB59",
"o.	c #BAAE5A",
"p.	c #B4A959",
"q.	c #A59E79",
"r.	c #7A5555",
"s.	c #EB5555",
"t.	c #FF5C5C",
"u.	c #995C5C",
"v.	c #B6B6B6",
"w.	c #A2A0A7",
"x.	c #BBB7C1",
"y.	c #A7A290",
"z.	c #AAA484",
"A.	c #ABA584",
"B.	c #A9A384",
"C.	c #A9A498",
"D.	c #B1AEB7",
"E.	c #A6A6A7",
"F.	c #EAEAEA",
"G.	c #805C5C",
"H.	c #EC5C5C",
"I.	c #FF6262",
"J.	c #9D6262",
"K.	c #E7E7E7",
"L.	c #86858A",
"M.	c #7F7C84",
"N.	c #7A777F",
"O.	c #75727B",
"P.	c #716E77",
"Q.	c #6E6B74",
"R.	c #6C6972",
"S.	c #6B6871",
"T.	c #706E75",
"U.	c #7F7F81",
"V.	c #DEDEDE",
"W.	c #A7A7A7",
"X.	c #6F4747",
"Y.	c #EB5454",
"Z.	c #FF6969",
"`.	c #FF4D4D",
" +	c #FF3939",
".+	c #6C1313",
"++	c #C8C8C8",
"@+	c #E4E4E4",
"#+	c #380000",
"$+	c #E10101",
"%+	c #FF1313",
"&+	c #FF2A2A",
"*+	c #FF1111",
"=+	c #600000",
"-+	c #E10000",
";+	c #7A7A7A",
">+	c #787878",
",+	c #DBB5C8",
"'+	c #C96E9C",
")+	c #D7BDCB",
"!+	c #C5C5C5",
"~+	c #565656",
"{+	c #3E3E3E",
"]+	c #B5B5B5",
"^+	c #C1C1C1",
"/+	c #C4538D",
"(+	c #900C50",
"_+	c #97637E",
":+	c #797979",
"<+	c #414141",
"[+	c #232323",
"}+	c #000000",
"|+	c #555555",
"1+	c #E0D7DB",
"2+	c #DBB8CA",
"3+	c #CA7CA4",
"4+	c #C894AF",
"5+	c #7F546A",
"6+	c #CAC0C6",
"7+	c #A9A9A9",
"8+	c #868686",
"9+	c #313131",
"0+	c #AAAAAA",
"a+	c #D08EB0",
"b+	c #C24B89",
"c+	c #8D0C4E",
"d+	c #BD9EAE",
"e+	c #202020",
"f+	c #696969",
"g+	c #D6BBC9",
"h+	c #A66E8B",
"i+	c #663A51",
"j+	c #D7D2D4",
"k+	c #BEBCC2",
"l+	c #C5C4C8",
"m+	c #C0BEC5",
"n+	c #C9C9C9",
"o+	c #C3C3C3",
"p+	c #BCBAC1",
"q+	c #C1C0C4",
"r+	c #C0BDC4",
"s+	c #BEBCC1",
"t+	c #C6C6C6",
"u+	c #CFCFCF",
"v+	c #480000",
"w+	c #E30000",
"x+	c #7D7D7D",
"y+	c #292929",
"z+	c #8B0000",
"A+	c #E90000",
"B+	c #8B8B8B",
"C+	c #040404",
"D+	c #7D0000",
"E+	c #D10000",
"F+	c #F50000",
"G+	c #6E6E6E",
"H+	c #121212",
"I+	c #780000",
"J+	c #D30000",
"K+	c #F40000",
"L+	c #FD0000",
". . . . . + @ # $ $ $ $ $ $ $ $ $ $ $ $ $ $ $ # % @ & * . . . . ",
"= = = = = - ; > > > > > > > > > > > > > > > > > , ; ' ) = = = = ",
"! ! ! ! ! ~ { ] ^ / / / / / / / / / / / / / / ^ , { ( _ ! ! ! ! ",
": : : : : < [ } | 1 1 1 1 1 1 1 1 1 1 1 1 1 1 | 2 [ 3 4 : : : : ",
"5 5 5 5 5 6 7 8 9 0 0 0 0 0 0 0 0 0 0 0 0 0 0 9 a 7 b c 5 5 5 5 ",
"d d d d d e f g h i i j k l l l l l l m n i i h o f p q d d d d ",
"r r r r r s t u v w w x y z z z z z z A B w w v C t D E r r r r ",
"F F F F F G H I J K K L M N N N N N N O P K K J u H Q R F F F F ",
"S S S S S T U V W X X Y Z ` ` ` ` ` `  ...X X W I U +.@.S S S S ",
"#.#.#.#.#.$.%.&.*.=.=.-.;.>.>.>.>.>.>.,.'.=.=.*.V %.).!.#.#.#.#.",
"~.~.~.~.~.{.].^./.(.(._.:.<.<.<.<.<.<.[.}.(.(./.&.].|.1.~.~.~.~.",
"2.2.2.2.2.3.4.5.6.7.7.8.9.0.0.0.0.0.0.a.b.7.7.c.d.4.e.f.2.2.2.2.",
"g.g.g.g.g.h.i.j.k.l.l.m.n.o.o.o.o.o.o.p.q.l.l.6.} i.r.s.g.g.g.g.",
"t.t.t.t.t.u.v.5.w.x.x.y.z.A.A.A.A.A.A.B.C.x.D.E.F.v.G.H.t.t.t.t.",
"I.I.I.I.I.J.i.K.L.J M.N.O.P.Q.R.S.S.R.Q.P.T.U.V.> W.X.Y.I.I.I.I.",
"Z.I.`. +r .+$ > V.++++++++++++++++++++++++&.@+> 2 $ #+$+%+r  +`.",
"&+*+. . . =+$ > > > > > > > > > > > > > > > > > 2 $ #+-+. . . . ",
". . . . . =+$ > > > > > > > > > > > > > > > > > 2 $ #+-+. . . . ",
". . . . . =+$ > > > ;+>+> > > > > > > > > ,+'+)+2 $ #+-+. . . . ",
". . . . . =+$ > C !+~+{+]+^+> > > > > > > /+(+_+2 $ #+-+. . . . ",
". . . . . =+$ > :+<+[+}+}+|+> > > 1+2+3+> 4+5+6+2 $ #+-+. . . . ",
". . . . . =+$ > 7+8+}+9+$ 0+> > > a+b+c+d+> > > 2 $ #+-+. . . . ",
". . . . . =+$ > > > e+f+> > > > > g+h+i+j+> > > 2 $ #+-+. . . . ",
". . . . . =+$ > > > > > > > > > > > > > > > > > 2 $ #+-+. . . . ",
". . . . . =+$ > > > > > > > > > > > > > > ^ 8 V.2 $ #+-+. . . . ",
". . . . . =+$ > > > > > > k+l+> m+l+> > ^.!+n+o+2 $ #+-+. . . . ",
". . . . . =+$ > > > > > p+q+> r+s+> } u t+!+o+t+++$ #+-+. . . . ",
". . . . . =+$ > > > > > > > > > > &.u+o+o+!+t+!+/ $ #+-+. . . . ",
". . . . . =+$ > > > > > > > > > > I ^+n+t+o+!+, C >+v+w+. . . . ",
". . . . . =+$ > > > > > > > > > > > u+t+o+C ^ > x+y+z+A+. . . . ",
". . . . . =+$ > > > > > > > > > > > > t+j.} > B+C+D+E+F+. . . . ",
". . . . . + @ # $ $ $ $ $ $ $ $ $ $ $ $ $ $ G+H+I+J+K+L+. . . . "};
